<svg viewBox="0 0 14 9" xmlns="http://www.w3.org/2000/svg"><title>photo</title><g fill="none" fill-rule="evenodd"><ellipse fill="#000" cx="7" cy="5" rx="1.333" ry="1.333"/><path d="M4.987 1.667h-3.32c-.46 0-.834.375-.834.833v5c0 .458.375.833.834.833h10.666c.46 0 .834-.375.834-.833v-5c0-.458-.375-.833-.834-.833h-3.32L8.25.833h-2.5l-.763.834zM7 7.083C5.85 7.083 4.917 6.15 4.917 5c0-1.15.933-2.083 2.083-2.083 1.15 0 2.083.933 2.083 2.083 0 1.15-.933 2.083-2.083 2.083z" fill="#000"/><circle fill="#F2F2F2" cx="11.5" cy="3.5" r=".5"/><path fill="#000" d="M2 1h2v.5H2z"/></g></svg>
